<svg xmlns="http://www.w3.org/2000/svg" width="512" height="512" xml:space="preserve"><path fill-rule="evenodd" clip-rule="evenodd" fill="#1769FF" d="M472.609 336H339c-8.828 0-16.008-7.156-16.008-16 0-8.828 7.18-15.984 16.008-15.984h128.227c6.492 0 11.773-5.383 11.773-12 0-.969-.258-1.867-.469-2.766-12.578-37.922-47.594-65.242-89.016-65.242-51.992 0-94.125 42.984-94.125 95.992 0 53.031 42.133 96.008 94.125 96.008 32 0 60.219-16.336 77.227-41.219l.039.016c2.891-3.875 7.461-6.422 12.664-6.422 8.719 0 15.805 7.086 15.805 15.805 0 3.211-.969 6.188-2.617 8.68-.219.328-.469.594-.703.898-22.727 32.758-60.062 54.25-102.414 54.25-69.32 0-125.523-57.32-125.523-128.016 0-70.68 56.203-128 125.523-128 59.055 0 108.461 41.656 121.828 97.703.32 2.039.5 4.156.5 6.312 0 22.087-17.563 39.985-39.235 39.985zm-40.617-175.984H336c-8.844 0-16-7.176-16-16 0-8.844 7.156-16.004 16-16.004h95.992c8.852 0 16.008 7.16 16.008 16.004 0 8.824-7.156 16-16.008 16zm-415.992 0c8.844 0 16 7.156 16 15.984 0 8.844-7.156 16-16 16-8.828 0-16-7.156-16-16 0-8.828 7.172-15.984 16-15.984zm207 105.25c6.227 0 11.57 3.57 14.211 8.773 11.836 17.742 18.797 39.039 18.797 61.961 0 61.859-50.156 112.016-112.008 112.016H40c-22.078 0-40-17.922-40-40.008v-144c0-22.102 17.922-40 40-40h95.992c44.188 0 80.016-35.809 80.016-79.992 0-44.188-35.828-80.012-80.016-80.012H48c-8.844 0-16 7.176-16 16.004v32.004c0 8.824-7.156 16-16 16-8.828 0-16-7.176-16-16V72.004C0 49.922 17.922 32 40 32H135.992c61.859 0 112.016 50.16 112.016 112.016 0 53.582-37.727 98.164-88.008 109.156 0 0-10.531 2.836-16 2.836H44c-6.617 0-12 5.367-12 12v132c0 8.828 7.156 16 16 16h96c44.18 0 80.008-35.82 80.008-80.008 0-16.828-5.219-32.414-14.102-45.297l.141-.109c-1.898-2.633-3.047-5.844-3.047-9.344 0-8.828 7.156-15.984 16-15.984z"/></svg>